nColumns=19
nRows=74
DataType=double
version=3
OpenSimVersion=4.1
endheader
time	ground_force_calcn_l_vx	ground_force_calcn_l_vy	ground_force_calcn_l_vz	ground_force_calcn_l_px	ground_force_calcn_l_py	ground_force_calcn_l_pz	ground_force_calcn_l_mx	ground_force_calcn_l_my	ground_force_calcn_l_mz	ground_force_calcn_r_vx	ground_force_calcn_r_vy	ground_force_calcn_r_vz	ground_force_calcn_r_px	ground_force_calcn_r_py	ground_force_calcn_r_pz	ground_force_calcn_r_mx	ground_force_calcn_r_my	ground_force_calcn_r_mz
0	0	0	0	0	0.210216	0	0	0	0	0	0	0	0	0.039332	0	0	0	0
0.00999104	0	0	0	0	-3.63328e-17	0	0	0	0	87.7236	706.503	38.3654	-0.328212	-3.63328e-17	-0.10298	1.54318	12.4284	0.674901
0.0199821	0	0	0	0	-3.5697e-17	0	0	0	0	83.2866	704.035	39.5069	-0.322505	-3.5697e-17	-0.104826	1.44733	12.2345	0.686538
0.0299731	0	0	0	0	-3.50629e-17	0	0	0	0	78.9527	701.1	40.6277	-0.316808	-3.50629e-17	-0.106641	1.34894	11.9786	0.69414
0.0399642	0	0	0	0	-3.44348e-17	0	0	0	0	74.6872	697.607	41.6647	-0.311159	-3.44348e-17	-0.108436	1.24807	11.6575	0.696244
0.0499552	0	0	0	0	-3.3814e-17	0	0	0	0	70.483	693.567	42.5284	-0.305568	-3.3814e-17	-0.11019	1.14785	11.2951	0.692595
0.0599462	0	0	0	0	-3.3202e-17	0	0	0	0	66.3644	688.974	43.141	-0.300045	-3.3202e-17	-0.111876	1.04684	10.8679	0.68051
0.0699373	0	0	0	0	-3.25981e-17	0	0	0	0	62.353	683.826	43.4508	-0.294583	-3.25981e-17	-0.113492	0.947234	10.3883	0.660083
0.0799283	0	0	0	0	-3.20022e-17	0	0	0	0	58.3509	678.288	43.4989	-0.289182	-3.20022e-17	-0.115073	0.847972	9.85707	0.632139
0.0899194	0	0	0	0	-3.14122e-17	0	0	0	0	54.4385	672.558	43.3605	-0.283824	-3.14122e-17	-0.116603	0.749942	9.26512	0.597331
0.0999104	0	0	0	0	-3.08241e-17	0	0	0	0	50.6182	666.825	43.0811	-0.278475	-3.08241e-17	-0.118063	0.655367	8.63355	0.557783
0.109901	0	0	0	0	-3.02309e-17	0	0	0	0	46.8715	661.308	42.6911	-0.273079	-3.02309e-17	-0.119474	0.568776	8.02483	0.518048
0.119892	0	0	0	0	-2.96301e-17	0	0	0	0	43.1682	656.356	42.2498	-0.267612	-2.96301e-17	-0.120869	0.487961	7.41927	0.47758
0.129884	0	0	0	0	-2.90173e-17	0	0	0	0	39.5764	652.33	41.7854	-0.262034	-2.90173e-17	-0.122246	0.413411	6.81418	0.436487
0.139875	0	0	0	0	-2.83924e-17	0	0	0	0	36.0076	649.419	41.3061	-0.256343	-2.83924e-17	-0.123606	0.343788	6.20043	0.394377
0.149866	0	0	0	0	-2.77527e-17	0	0	0	0	32.4207	647.73	40.7555	-0.250517	-2.77527e-17	-0.124974	0.279749	5.58909	0.351668
0.159857	0	0	0	0	-2.70994e-17	0	0	0	0	28.8379	647.345	40.1423	-0.244565	-2.70994e-17	-0.126346	0.220756	4.95546	0.307292
0.169848	0	0	0	0	-2.64379e-17	0	0	0	0	25.2305	648.273	39.4848	-0.238535	-2.64379e-17	-0.127705	0.167096	4.29335	0.261498
0.179839	0	0	0	0	-2.57701e-17	0	0	0	0	21.6232	650.377	38.8027	-0.23245	-2.57701e-17	-0.129029	0.120758	3.63213	0.216699
0.18983	0	0	0	0	-2.50955e-17	0	0	0	0	18.0763	653.46	38.1268	-0.226302	-2.50955e-17	-0.130315	0.0810274	2.92914	0.170904
0.199821	0	0	0	0	-2.44134e-17	0	0	0	0	14.6341	657.334	37.4838	-0.220089	-2.44134e-17	-0.131554	0.0495335	2.22494	0.126875
0.209812	0	0	0	0	-2.37257e-17	0	0	0	0	11.2815	661.805	36.9059	-0.213834	-2.37257e-17	-0.132732	0.0266605	1.56397	0.0872158
0.219803	0	0	0	0	-2.30303e-17	0	0	0	0	8.10043	666.608	36.4698	-0.207516	-2.30303e-17	-0.133839	0.0114415	0.941558	0.0515122
0.229794	0	0	0	0	-2.23255e-17	0	0	0	0	5.1024	671.476	36.2269	-0.201121	-2.23255e-17	-0.134905	0.00290424	0.382198	0.02062
0.239785	0	0	0	0	-2.16142e-17	0	0	0	0	2.24122	676.148	36.199	-0.194679	-2.16142e-17	-0.135943	-0.000218199	-0.0658277	-0.00352422
0.249776	0	0	0	0	-2.09e-17	0	0	0	0	-0.478467	680.386	36.3921	-0.188221	-2.09e-17	-0.136936	0.000269611	-0.383391	-0.0205065
0.259767	0	0	0	0	-2.01825e-17	0	0	0	0	-3.0189	683.971	36.7988	-0.181741	-2.01825e-17	-0.137877	0.00259081	-0.586981	-0.0315806
0.269758	0	0	0	0	-1.94656e-17	0	0	0	0	-5.44702	686.789	37.3701	-0.175276	-1.94656e-17	-0.138783	0.00543212	-0.68491	-0.0372678
0.279749	0	0	0	0	-1.87586e-17	0	0	0	0	-7.81576	688.772	38.0287	-0.168908	-1.87586e-17	-0.139643	0.00769053	-0.677736	-0.0374193
0.28974	0	0	0	0	-1.80657e-17	0	0	0	0	-10.1133	689.917	38.7367	-0.162671	-1.80657e-17	-0.140434	0.00901161	-0.61476	-0.0345169
0.299731	0	0	0	0	-1.73843e-17	0	0	0	0	-12.3933	690.26	39.4551	-0.15654	-1.73843e-17	-0.141174	0.00958792	-0.53401	-0.0305239
0.309722	0	0	0	0	-1.67138e-17	0	0	0	0	-14.7383	689.927	40.1007	-0.150506	-1.67138e-17	-0.141902	0.0096226	-0.450453	-0.0261817
0.319713	0	0	0	0	-1.60561e-17	0	0	0	0	-17.1424	689.074	40.6479	-0.144585	-1.60561e-17	-0.142588	0.0102028	-0.410123	-0.0241928
0.329704	0	0	0	0	-1.54113e-17	0	0	0	0	-19.6037	687.854	41.0838	-0.138775	-1.54113e-17	-0.143207	0.0124791	-0.437867	-0.0261527
0.339695	0	0	0	0	-1.47721e-17	0	0	0	0	-22.1729	686.443	41.4302	-0.13301	-1.47721e-17	-0.143787	0.0169297	-0.52412	-0.0316332
0.349686	0	0	0	0	-1.41355e-17	0	0	0	0	-24.8464	685.087	41.6964	-0.127259	-1.41355e-17	-0.144357	0.0251245	-0.692753	-0.0421629
0.359677	0	0	0	0	-1.35055e-17	0	0	0	0	-27.5786	684.031	41.897	-0.121563	-1.35055e-17	-0.14491	0.0379304	-0.940786	-0.0576233
0.369668	0	0	0	0	-1.28888e-17	0	0	0	0	-30.3903	683.484	42.0595	-0.115978	-1.28888e-17	-0.145442	0.0560404	-1.26036	-0.0775586
0.379659	0	0	0	0	-1.2285e-17	0	0	0	0	-33.2625	683.593	42.2343	-0.110504	-1.2285e-17	-0.145966	0.080661	-1.6577	-0.102417
0.389651	0	0	0	0	-1.16939e-17	0	0	0	0	-36.1605	684.499	42.4244	-0.105133	-1.16939e-17	-0.146484	0.114761	-2.17236	-0.13464
0.399642	0	0	0	0	-1.11162e-17	0	0	0	0	-39.11	686.298	42.6303	-0.0998742	-1.11162e-17	-0.146991	0.158595	-2.783	-0.17287
0.409633	0	0	0	0	-1.05479e-17	0	0	0	0	-42.1781	688.99	42.8693	-0.0946934	-1.05479e-17	-0.147497	0.212544	-3.47196	-0.216027
0.419624	0	0	0	0	-9.97491e-18	0	0	0	0	-45.3742	692.507	43.1837	-0.0894617	-9.97491e-18	-0.148018	0.279677	-4.26847	-0.266175
0.429615	0	0	0	0	-9.38936e-18	0	0	0	0	-48.7696	696.788	43.6094	-0.0841071	-9.38936e-18	-0.148564	0.362083	-5.17321	-0.323773
0.439606	0	0	0	0	-8.79144e-18	0	0	0	0	-52.4469	701.78	44.1515	-0.0786351	-8.79144e-18	-0.149129	0.459434	-6.14758	-0.386766
0.449597	0	0	0	0	-8.18313e-18	0	0	0	0	-56.4285	707.334	44.8359	-0.0730637	-8.18313e-18	-0.149706	0.572826	-7.1804	-0.455145
0.459588	0	0	0	0	-7.56003e-18	0	0	0	0	-60.7108	713.224	45.6718	-0.067352	-7.56003e-18	-0.150296	0.70416	-8.27239	-0.529729
0.469579	0	0	0	0	-6.92225e-18	0	0	0	0	-65.3227	719.249	46.6396	-0.0615039	-6.92225e-18	-0.150898	0.852466	-9.38625	-0.60865
0.47957	0	0	0	0	-6.27233e-18	0	0	0	0	-70.2184	725.213	47.6983	-0.0555459	-6.27233e-18	-0.151482	1.01454	-10.4781	-0.689162
0.489561	0	0	0	0	-5.61168e-18	0	0	0	0	-75.318	730.831	48.8113	-0.0494916	-5.61168e-18	-0.152017	1.18845	-11.5318	-0.770196
0.499552	0	0	0	0	-4.93794e-18	0	0	0	0	-80.5871	735.777	49.9082	-0.0433225	-4.93794e-18	-0.152509	1.37169	-12.5238	-0.849498
0.509543	0	0	0	0	-4.25149e-18	0	0	0	0	-85.9966	739.757	50.9367	-0.0370428	-4.25149e-18	-0.152948	1.5628	-13.4435	-0.925662
0.519534	0	0	0	0	-3.55337e-18	0	0	0	0	-91.4558	742.483	51.8532	-0.0306621	-3.55337e-18	-0.153305	1.75985	-14.2873	-0.997791
0.529525	0	0	0	0	-2.83999e-18	0	0	0	0	-96.8924	743.592	52.5952	-0.0241488	-2.83999e-18	-0.153565	1.96097	-15.0493	-1.06445
0.539516	0	0	0	0	-2.10798e-18	0	0	0	0	-102.293	742.708	53.0996	-0.0174715	-2.10798e-18	-0.153746	2.16825	-15.7429	-1.12553
0.549507	0	0	0	0	-1.36081e-18	0	0	0	0	-107.561	739.518	53.3377	-0.010661	-1.36081e-18	-0.153847	2.38024	-16.365	-1.18033
0.559498	0.107855	4.96713	0.715014	-0.61379	-6.75502e-17	0.105305	0.0040098	0.184666	0.0265825	-112.567	733.709	53.3027	-0.00381881	-6.09877e-19	-0.153842	2.59455	-16.9112	-1.22857
0.569489	0.546841	15.2541	1.94974	-0.588264	-6.48633e-17	0.0968132	0.0172275	0.480561	0.0614239	-117.183	724.869	52.9818	0.00300743	1.39731e-19	-0.153715	2.80381	-17.3438	-1.26769
0.57948	1.53916	31.1643	3.50176	-0.561393	-6.20027e-17	0.0883311	0.0400319	0.810552	0.0910773	-121.257	712.611	52.3193	0.00980214	8.86483e-19	-0.153486	3.0016	-17.6399	-1.29511
0.589471	3.30155	52.8488	5.14922	-0.532885	-5.89387e-17	0.0802867	0.0682	1.0917	0.106367	-124.602	696.671	51.2853	0.0165088	1.62414e-18	-0.153171	3.18186	-17.7903	-1.30963
0.599462	6.03544	80.1485	6.63537	-0.502991	-5.57019e-17	0.0734218	0.0928193	1.23261	0.102046	-127.047	676.867	49.8523	0.0230187	2.34105e-18	-0.152767	3.33334	-17.759	-1.30798
0.609453	10.1195	112.682	7.60213	-0.472768	-5.24137e-17	0.0688675	0.100026	1.1138	0.0751427	-128.427	652.955	48.0091	0.029271	3.03046e-18	-0.152257	3.44976	-17.5395	-1.2896
0.619444	15.8145	149.777	7.65125	-0.444454	-4.93188e-17	0.0666616	0.0712211	0.674526	0.0344576	-128.519	624.758	45.6795	0.0352327	3.68855e-18	-0.151629	3.53172	-17.1684	-1.25528
0.629435	23.0524	190.574	6.44283	-0.419474	-4.65733e-17	0.0664398	-0.0146574	-0.121172	-0.00409653	-127.202	592.361	42.8116	0.040784	4.30258e-18	-0.150878	3.57256	-16.6369	-1.20239
0.639427	31.4962	234.107	3.82606	-0.39835	-4.42356e-17	0.0677875	-0.171115	-1.27187	-0.0207864	-124.385	556.028	39.4085	0.0457537	4.85454e-18	-0.149989	3.5589	-15.909	-1.12755
0.649418	40.8158	279.324	-0.202895	-0.381191	-4.23199e-17	0.0702882	-0.401032	-2.74447	0.00199352	-119.912	516.077	35.5525	0.0501118	5.34135e-18	-0.148914	3.48341	-14.9918	-1.03279
0.659409	50.624	325.041	-5.45567	-0.367788	-4.08071e-17	0.0734314	-0.69371	-4.4541	0.07476	-113.736	472.988	31.3047	0.0538616	5.7633e-18	-0.147601	3.35161	-13.9381	-0.922492
0.6694	60.4064	370.119	-11.5958	-0.357488	-3.96301e-17	0.0768098	-1.02509	-6.28086	0.196778	-105.976	427.52	26.764	0.0569369	6.11406e-18	-0.14604	3.1594	-12.7455	-0.797904
0.679391	69.7034	413.688	-18.1255	-0.349384	-3.86947e-17	0.0801813	-1.35787	-8.05894	0.353099	-96.7985	380.673	22.0633	0.0592323	6.38293e-18	-0.144199	2.90607	-11.4285	-0.662382
0.689382	78.1489	455.115	-24.5125	-0.342843	-3.79362e-17	0.083302	-1.65954	-9.66463	0.520537	-86.4171	333.46	17.4345	0.0608498	6.58105e-18	-0.142058	2.59989	-10.0323	-0.524525
0.699373	85.4551	493.927	-30.2849	-0.337496	-3.73172e-17	0.085956	-1.91255	-11.0545	0.6778	-75.2339	286.897	13.0908	0.0619123	6.7213e-18	-0.139642	2.26258	-8.62812	-0.393691
0.709364	91.3906	529.833	-35.1839	-0.332936	-3.67941e-17	0.0880115	-2.09779	-12.1619	0.807616	-63.7034	242.057	9.21578	0.0624796	6.81003e-18	-0.13701	1.90801	-7.24995	-0.276026
0.719355	95.8756	562.75	-39.0918	-0.328681	-3.63138e-17	0.0894847	-2.20174	-12.9233	0.897727	-52.2795	199.905	5.94357	0.0627067	6.86382e-18	-0.134194	1.55251	-5.93644	-0.176503
0.729346	98.8663	592.643	-41.9752	-0.324425	-3.58413e-17	0.0903948	-2.22674	-13.348	0.945397	-41.4171	161.164	3.33733	0.0630355	6.931e-18	-0.131339	1.21332	-4.72135	-0.097768
